<?xml version="1.0" encoding="utf-8"?>
<!-- Generator: Adobe Illustrator 22.0.0, SVG Export Plug-In . SVG Version: 6.00 Build 0)  -->
<svg version="1.0" id="Layer_1" xmlns="http://www.w3.org/2000/svg" xmlns:xlink="http://www.w3.org/1999/xlink" x="0px" y="0px"
	 viewBox="0 0 140 140" style="enable-background:new 0 0 140 140;" xml:space="preserve">
<style type="text/css">
	.st0{fill:#FFFFFF;}
	.st1{fill:#EA4659;}
	.st2{fill:#EA4759;}
	.st3{fill:none;stroke:#FFFFFF;stroke-width:22.6772;stroke-miterlimit:10;}
	.st4{fill:none;stroke:#FFFFFF;stroke-width:22.6772;stroke-linecap:round;stroke-miterlimit:10;}
	.st5{fill:#FFFFFF;stroke:#EA4759;stroke-width:2.8346;stroke-miterlimit:10;}
	.st6{fill:none;stroke:#FFFFFF;stroke-width:14.1732;stroke-miterlimit:10;}
	.st7{fill:url(#SVGID_1_);}
	.st8{opacity:0.2;fill:url(#SVGID_2_);}
	.st9{fill:url(#SVGID_3_);}
	.st10{fill:url(#SVGID_4_);}
	.st11{fill:url(#SVGID_5_);}
	.st12{fill:url(#SVGID_6_);}
	.st13{fill:url(#SVGID_7_);}
	.st14{fill:url(#SVGID_8_);}
	.st15{opacity:0.2;fill:url(#SVGID_9_);}
	.st16{fill:url(#SVGID_10_);}
	.st17{fill:url(#SVGID_11_);}
	.st18{fill:url(#SVGID_12_);}
	.st19{fill:url(#SVGID_13_);}
	.st20{fill:url(#SVGID_14_);}
	.st21{fill:url(#SVGID_15_);}
	.st22{opacity:0.2;fill:url(#SVGID_16_);}
	.st23{fill:url(#SVGID_17_);}
	.st24{fill:url(#SVGID_18_);}
	.st25{fill:url(#SVGID_19_);}
	.st26{fill:url(#SVGID_20_);}
	.st27{fill:url(#SVGID_21_);}
	.st28{fill:url(#SVGID_22_);}
	.st29{opacity:0.2;fill:url(#SVGID_23_);}
	.st30{fill:url(#SVGID_24_);}
	.st31{fill:url(#SVGID_25_);}
	.st32{fill:url(#SVGID_26_);}
	.st33{fill:url(#SVGID_27_);}
	.st34{fill:url(#SVGID_28_);}
</style>
<g>
	<g>
		<path class="st1" d="M20.8,60.6c-4.9,0.6-8.4,3.3-12.8,5.6c3-9.2,8.6-15.8,14.9-21.8c6.3-6.1,14.8-12.1,22.8-17
			c-7.1-1.9-10.5,0-13.9,1.6C48.2,14.2,66.6,9.8,87.6,13.7c1.8-2.8,4.1-5.5,6.9-7.6c2.8-2.1,5.4-4.3,8.8-6.1
			c0.4,2.7-0.5,5.6-0.6,7.8c2-1,3.4-3,5.7-3.7c-1,6.1-1,12.2,0.1,18.2c0.2,1,0.3,2,1,2.8c5.4,6.5,8.3,14.3,11.4,21.9
			c1.1,2.8,1.8,7.7,2.8,10.5c1.2,3.5,3.4,4.6,5.4,7.7c2.8,4,3.7,8.5,2.4,13.3c-3.3,5.6-4.2,5.2-10.3,7.1c-4.3,1.3-8.2-0.5-10.3-5.5
			c-0.4-0.9-0.7-1.9-1.1-3.1c-10.2-1.8-17-8.7-23.3-16.7c-6.8,3.7-9.8,9.4-10.1,16.7c-0.3,6.4,1.2,12.4,3.7,18.2
			c1.5,3.5,3.2,6.9,5.5,9.9c6.4,8.5,6.9,18,5.2,27.9c-0.4,2.2-0.7,4.5-1.9,6.8c-6.5-9.9-16.2-15.8-26.2-21.3
			c-6.5-3.6-13.2-6.8-19.5-10.7c-6.2-3.9-12.1-8.2-17-13.6c-5.7-6.2-9.5-13.2-8.7-22.1C17.7,68.3,19.6,64.8,20.8,60.6z"/>
	</g>
	<linearGradient id="SVGID_1_" gradientUnits="userSpaceOnUse" x1="47.4348" y1="34.2156" x2="48.3464" y2="27.7292">
		<stop  offset="0.295" style="stop-color:#000000;stop-opacity:0"/>
		<stop  offset="1" style="stop-color:#000000;stop-opacity:0.5575"/>
	</linearGradient>
	<path class="st7" d="M45.7,27.4c0,0,8.9,2.6,12.1,6.2c0,0-13.5-4.9-20.5-0.8C37.3,32.8,42.3,29.5,45.7,27.4z"/>
	<linearGradient id="SVGID_2_" gradientUnits="userSpaceOnUse" x1="108.6627" y1="4.3179" x2="99.8762" y2="18.3793">
		<stop  offset="0.335" style="stop-color:#000000;stop-opacity:0"/>
		<stop  offset="1" style="stop-color:#000000;stop-opacity:0.5575"/>
	</linearGradient>
	<path class="st8" d="M108.3,4.1c-1.6,0.3-4,2.8-5.7,3.7c0,0-0.7,9.4-1.2,11.6c0.7-0.1,1.5,0.4,1.5,0.4s1.9-5.3,3.1-9.8
		C107,6.6,108.3,4.1,108.3,4.1z"/>
	<linearGradient id="SVGID_3_" gradientUnits="userSpaceOnUse" x1="104.0978" y1="15.2128" x2="96.4442" y2="10.0504">
		<stop  offset="0.4" style="stop-color:#000000;stop-opacity:0"/>
		<stop  offset="1" style="stop-color:#000000;stop-opacity:0.5575"/>
	</linearGradient>
	<path class="st9" d="M93.5,22.7C93.2,17.5,103.2,0,103.2,0s-1.7,18.1-3,20.9c0,0-0.9-0.3-2.7,0C96,21.2,93.5,22.7,93.5,22.7z"/>
	<linearGradient id="SVGID_4_" gradientUnits="userSpaceOnUse" x1="109.0798" y1="19.9352" x2="103.4536" y2="8.3998">
		<stop  offset="0" style="stop-color:#000000;stop-opacity:0"/>
		<stop  offset="1" style="stop-color:#000000;stop-opacity:0.5575"/>
	</linearGradient>
	<path class="st10" d="M104.4,20.9c1.9-5.4,3.2-14.6,3.2-14.6S107,17.5,107,20.9"/>
	<linearGradient id="SVGID_5_" gradientUnits="userSpaceOnUse" x1="73.8424" y1="65.436" x2="85.3994" y2="51.1644">
		<stop  offset="0.265" style="stop-color:#000000;stop-opacity:0"/>
		<stop  offset="1" style="stop-color:#000000;stop-opacity:0.5575"/>
	</linearGradient>
	<path class="st11" d="M78.1,68.9L78.1,68.9c1.6-3.5,4.3-6.3,8.3-8.5c-5.3-3.2-5.1-8.6-6.4-12.9C80.6,51.6,81.8,60.1,78.1,68.9z"/>
	<linearGradient id="SVGID_6_" gradientUnits="userSpaceOnUse" x1="29.3246" y1="75.2986" x2="26.8399" y2="59.6111">
		<stop  offset="0.59" style="stop-color:#000000;stop-opacity:0"/>
		<stop  offset="1" style="stop-color:#000000;stop-opacity:0.5575"/>
	</linearGradient>
	<path class="st12" d="M39.4,64.8c-3.5-4.9-19-4.2-18.6-4.3c-1.1,4.2-3.1,7.7-3.5,11.7c0,0.3,0,0.6-0.1,0.9
		C20.4,61.2,39.4,64.8,39.4,64.8z"/>
	<linearGradient id="SVGID_7_" gradientUnits="userSpaceOnUse" x1="90.5456" y1="62.2403" x2="90.5765" y2="60.4697">
		<stop  offset="8.500000e-02" style="stop-color:#000000;stop-opacity:0"/>
		<stop  offset="0.665" style="stop-color:#000000;stop-opacity:0.5575"/>
	</linearGradient>
	<path class="st13" d="M86.4,60.4c2.8,1.7,8.4,0.7,8.4,0.7s-6,2.5-7.7,0.1L86.4,60.4z"/>
</g>
</svg>
