<?xml version="1.0" encoding="utf-8"?>
<!-- Generator: Adobe Illustrator 22.0.0, SVG Export Plug-In . SVG Version: 6.00 Build 0)  -->
<svg version="1.0" id="Layer_1" xmlns="http://www.w3.org/2000/svg" xmlns:xlink="http://www.w3.org/1999/xlink" x="0px" y="0px"
	 viewBox="0 0 500 500" style="enable-background:new 0 0 500 500;" xml:space="preserve">
<style type="text/css">
	.st0{fill:#EA4659;}
	.st1{fill:#FFFFFF;}
	.st2{fill:#EA4759;}
	.st3{fill:none;stroke:#FFFFFF;stroke-width:22.6772;stroke-miterlimit:10;}
	.st4{fill:none;stroke:#FFFFFF;stroke-width:22.6772;stroke-linecap:round;stroke-miterlimit:10;}
	.st5{fill:#FFFFFF;stroke:#EA4759;stroke-width:2.8346;stroke-miterlimit:10;}
	.st6{fill:none;stroke:#FFFFFF;stroke-width:14.1732;stroke-miterlimit:10;}
</style>
<g>
	<g>
		<path class="st0" d="M497.9,313.9c-5-11.1-13.7-18.3-24.4-23.6c-1-0.5-2-0.7-2.5-2c-5.1-14.5-13.7-26.9-23.1-38.8
			c-8.7,5.5-24,17-39.7,32c-21.8,20.8-35.9,40.4-40.2,55.7c6.5,5.8,13.3,11.3,20.6,16.2c2.7,1.8,5.3,4,7.7,6.2
			c3.5,3.2,6.4,6.9,7.9,11.6c2.1,6.6,6.1,9.6,13.1,9.8c7.7,0.2,15.5,0.3,23.2-0.6c9.3-1.1,18.5-2.7,26.8-7.2
			c9.2-4.9,15-12.2,15.1-23.1c0-1.6,0.9-2.3,1.9-3.1c4.5-3.7,8.5-8,11.8-12.8C500.7,327.7,501.1,321,497.9,313.9z"/>
		<path class="st0" d="M237.2,308.5c0.9-2.4,1.9-4.8,3-7.1c6.3-13.9,14.7-26.4,24.9-37.8c0.8-0.9,8.7-2.6,17.3,15.8
			c3.9,8.3,8.2,16.3,14.8,22.9c7.2,7.2,16.4,10.2,25.9,12.5c3.3,0.8,6.5,1.7,9.7,2.7c14.1,0.6,24.1,0.6,28.5,0.6
			c1-1.8,2-3.7,3.2-5.5c-27.6-35-46.7-88.8-56.7-159.9c-5.5-38.9-6.6-72.1-6.8-87.5c-2.1-0.7-4.2-1.3-6.2-1.9
			c-15.1-4.4-30.3-7.9-46.2-6.2c-3.2,0.4-6.5-0.1-9.6-0.8C212,50,186.1,41.2,162.2,26.3c6.2,12.6,12.2,25.2,23.9,34.2
			c-0.9,0.2-1.5,0.4-2.1,0.5c-18.6,2-37.1,2.3-55.6-0.6c-14.8-2.2-28.9-6.3-41.7-14.4c-1.3-0.9-2.7-1.7-4-2.6
			c9.1,15.4,18.2,30.6,35.1,39.7c-3.5,0.3-6.3,0.7-9.2,0.9c-20.1,1.3-40.2,1.4-60.2-1.7C36.4,80.4,24.8,77.4,13.9,72
			c-1.2-0.6-2.3-1.2-3.5-1.8c12.1,19.2,27.4,34.4,50,42c-1.4,1.2-2.4,1.9-3.3,2.9c-14.5,15.1-28.6,30.5-41.5,47
			C9.7,169.5,4.2,177.1,0,186.2c7-1.4,13.5-2.5,19.9-4c2.6-0.6,3-0.2,2.5,2.3c-2.6,11.6-3.9,23.4-4.7,35.2c-0.1,2.3-0.3,4.6-0.3,6.9
			c57.7,46.6,141.9,68.9,205.3,79.5C227.6,307,232.4,307.8,237.2,308.5z"/>
		<path class="st0" d="M97.8,287.2c-31.2-12.2-58.2-26.7-80.6-43.4c0.4,19.8,2.8,39.4,7.7,58.7c8.7,34.3,24.4,64.8,48.6,90.7
			c25.6,27.4,56.9,46,91.8,59.1c21.1,7.9,42.8,13.4,64.9,17.4c9.7,1.7,19.5,3.2,29.7,4.2c-0.5-0.9-0.9-1.5-1.2-2.1
			c-18.2-32.5-29.9-66.9-31.1-104.4c-0.5-15.7,1.1-31,5.3-45.8c-4-0.6-8.1-1.2-12.2-1.9C174.8,312.1,133.5,301.1,97.8,287.2z"/>
		<path class="st0" d="M398.8,271.6c14.7-14,30-26,40.5-32.8c-3.1-4.1-6-8.3-8.1-13.1c-2.9-6.7-5.9-13.4-9-20
			c-3.8-8.3-10.5-14.9-14.6-23.1c-2-4.1-2.2-4,2.3-4.3c2.6-0.2,5.2-0.4,7.9-1.9c-13.7-8.1-26.3-16.8-37.9-26.9
			c1.9,0.6,3.5,1.9,5.4,2.3c3.1,0.7,3.9-0.2,3-3.2c-1.8-6.3-4.2-12.3-6.9-18.2c-3.1-6.8-6.7-13.4-11.9-19.1
			c-1.1-1.2-15.5-10.3-4.4-24.8c13.8-18.1,37.1-55.3,40.7-60.4c-38.4-1.6-77.2,38.3-84.1,47c-0.4-0.2-0.8-0.4-1.2-0.6
			c-1.7-0.7-3.4-1.4-5-2.1c1,41.7,8.4,163.2,57.5,229.5C381.2,289.4,390.5,279.6,398.8,271.6z"/>
	</g>
</g>
</svg>
